<svg width="80" height="55" viewBox="0 0 80 55" fill="none" xmlns="http://www.w3.org/2000/svg">
<g opacity="0.8">
<mask id="mask0" mask-type="alpha" maskUnits="userSpaceOnUse" x="0" y="0" width="80" height="55">
<path d="M22.8994 43.4683H26.3343V29.9578H22.8994V43.4683Z" fill="#54C2F7"/>
<path d="M52.096 41.7061H55.5309V31.7201H52.096V41.7061Z" fill="#54C2F7"/>
<path d="M30.3417 54.042H33.7766V19.3848H30.3417V54.042Z" fill="#54C2F7"/>
<path d="M44.6537 49.3438H48.0886V24.0851H44.6537V49.3438Z" fill="#54C2F7"/>
<path d="M37.7839 46.4043H41.2188V27.0198H37.7839V46.4043Z" fill="#54C2F7"/>
<path fill-rule="evenodd" clip-rule="evenodd" d="M70.384 33.7764C69.6494 16.615 56.1038 2.93735 39.5014 2.93735C22.8989 2.93735 9.35327 16.615 8.61865 33.7764C8.59781 33.2896 8.58728 32.8 8.58728 32.3078C8.58728 14.4649 22.428 0.000297546 39.5014 0.000297546C56.5747 0.000297546 70.4154 14.4649 70.4154 32.3078C70.4154 32.8 70.4049 33.2896 70.384 33.7764Z" fill="#54C2F7"/>
<path d="M4.11016e-07 37.0094C1.84018e-07 31.8187 4.10095 27.6108 9.15972 27.6108C8.16838 35.3574 8.23758 39.4464 9.15972 46.408C4.10095 46.408 6.38013e-07 42.2001 4.11016e-07 37.0094Z" fill="white"/>
<path d="M79.0026 37.0089C79.0026 31.8182 74.9016 27.6104 69.8428 27.6104C70.8342 35.3569 70.765 39.4459 69.8428 46.4075C74.9016 46.4075 79.0026 42.1996 79.0026 37.0089Z" fill="white"/>
</mask>
<g mask="url(#mask0)">
<path opacity="0.8" d="M-12.0221 -22.3198H95.6046V77.5399H-12.0221V-22.3198Z" fill="#F4F4F4"/>
</g>
</g>
</svg>
