<svg width="29" height="35" viewBox="0 0 29 35" fill="none" xmlns="http://www.w3.org/2000/svg">
<g filter="url(#filter0_dd)">
<path d="M14.5 10C14.5 10 14.7483 13.708 15.7154 15.2553C16.6825 16.8027 19 17.2 19 17.2C19 17.2 16.6825 17.5973 15.7154 19.1447C14.7483 20.692 14.5 24.4 14.5 24.4C14.5 24.4 14.2517 20.692 13.2846 19.1447C12.3175 17.5973 10 17.2 10 17.2C10 17.2 12.3175 16.8027 13.2846 15.2553C14.2517 13.708 14.5 10 14.5 10Z" fill="white" fill-opacity="0.1"/>
</g>
<g filter="url(#filter1_bd)">
<path d="M14.5 10C14.5 10 14.7483 13.708 15.7154 15.2553C16.6825 16.8027 19 17.2 19 17.2C19 17.2 16.6825 17.5973 15.7154 19.1447C14.7483 20.692 14.5 24.4 14.5 24.4C14.5 24.4 14.2517 20.692 13.2846 19.1447C12.3175 17.5973 10 17.2 10 17.2C10 17.2 12.3175 16.8027 13.2846 15.2553C14.2517 13.708 14.5 10 14.5 10Z" fill="white" fill-opacity="0.1"/>
</g>
<g filter="url(#filter2_dd)">
<path d="M14.5 10C14.5 10 14.7483 13.708 15.7154 15.2553C16.6825 16.8027 19 17.2 19 17.2C19 17.2 16.6825 17.5973 15.7154 19.1447C14.7483 20.692 14.5 24.4 14.5 24.4C14.5 24.4 14.2517 20.692 13.2846 19.1447C12.3175 17.5973 10 17.2 10 17.2C10 17.2 12.3175 16.8027 13.2846 15.2553C14.2517 13.708 14.5 10 14.5 10Z" fill="white"/>
</g>
<g filter="url(#filter3_dd)">
<path d="M14.5 10C14.5 10 14.7483 13.708 15.7154 15.2553C16.6825 16.8027 19 17.2 19 17.2C19 17.2 16.6825 17.5973 15.7154 19.1447C14.7483 20.692 14.5 24.4 14.5 24.4C14.5 24.4 14.2517 20.692 13.2846 19.1447C12.3175 17.5973 10 17.2 10 17.2C10 17.2 12.3175 16.8027 13.2846 15.2553C14.2517 13.708 14.5 10 14.5 10Z" fill="white"/>
</g>
<defs>
<filter id="filter0_dd" x="0" y="0" width="29" height="34.4" filterUnits="userSpaceOnUse" color-interpolation-filters="sRGB">
<feFlood flood-opacity="0" result="BackgroundImageFix"/>
<feColorMatrix in="SourceAlpha" type="matrix" values="0 0 0 0 0 0 0 0 0 0 0 0 0 0 0 0 0 0 127 0"/>
<feOffset/>
<feGaussianBlur stdDeviation="5"/>
<feColorMatrix type="matrix" values="0 0 0 0 1 0 0 0 0 1 0 0 0 0 1 0 0 0 0.25 0"/>
<feBlend mode="normal" in2="BackgroundImageFix" result="effect1_dropShadow"/>
<feColorMatrix in="SourceAlpha" type="matrix" values="0 0 0 0 0 0 0 0 0 0 0 0 0 0 0 0 0 0 127 0"/>
<feOffset/>
<feGaussianBlur stdDeviation="1"/>
<feColorMatrix type="matrix" values="0 0 0 0 1 0 0 0 0 1 0 0 0 0 1 0 0 0 0.5 0"/>
<feBlend mode="normal" in2="effect1_dropShadow" result="effect2_dropShadow"/>
<feBlend mode="normal" in="SourceGraphic" in2="effect2_dropShadow" result="shape"/>
</filter>
<filter id="filter1_bd" x="0" y="0" width="29" height="34.4" filterUnits="userSpaceOnUse" color-interpolation-filters="sRGB">
<feFlood flood-opacity="0" result="BackgroundImageFix"/>
<feGaussianBlur in="BackgroundImage" stdDeviation="1"/>
<feComposite in2="SourceAlpha" operator="in" result="effect1_backgroundBlur"/>
<feColorMatrix in="SourceAlpha" type="matrix" values="0 0 0 0 0 0 0 0 0 0 0 0 0 0 0 0 0 0 127 0"/>
<feOffset/>
<feGaussianBlur stdDeviation="5"/>
<feColorMatrix type="matrix" values="0 0 0 0 1 0 0 0 0 1 0 0 0 0 1 0 0 0 1 0"/>
<feBlend mode="normal" in2="effect1_backgroundBlur" result="effect2_dropShadow"/>
<feBlend mode="normal" in="SourceGraphic" in2="effect2_dropShadow" result="shape"/>
</filter>
<filter id="filter2_dd" x="0" y="0" width="29" height="34.4" filterUnits="userSpaceOnUse" color-interpolation-filters="sRGB">
<feFlood flood-opacity="0" result="BackgroundImageFix"/>
<feColorMatrix in="SourceAlpha" type="matrix" values="0 0 0 0 0 0 0 0 0 0 0 0 0 0 0 0 0 0 127 0"/>
<feOffset/>
<feGaussianBlur stdDeviation="5"/>
<feColorMatrix type="matrix" values="0 0 0 0 1 0 0 0 0 1 0 0 0 0 1 0 0 0 0.25 0"/>
<feBlend mode="normal" in2="BackgroundImageFix" result="effect1_dropShadow"/>
<feColorMatrix in="SourceAlpha" type="matrix" values="0 0 0 0 0 0 0 0 0 0 0 0 0 0 0 0 0 0 127 0"/>
<feOffset/>
<feGaussianBlur stdDeviation="1"/>
<feColorMatrix type="matrix" values="0 0 0 0 1 0 0 0 0 1 0 0 0 0 1 0 0 0 0.25 0"/>
<feBlend mode="normal" in2="effect1_dropShadow" result="effect2_dropShadow"/>
<feBlend mode="normal" in="SourceGraphic" in2="effect2_dropShadow" result="shape"/>
</filter>
<filter id="filter3_dd" x="0" y="0" width="29" height="34.4" filterUnits="userSpaceOnUse" color-interpolation-filters="sRGB">
<feFlood flood-opacity="0" result="BackgroundImageFix"/>
<feColorMatrix in="SourceAlpha" type="matrix" values="0 0 0 0 0 0 0 0 0 0 0 0 0 0 0 0 0 0 127 0"/>
<feOffset/>
<feGaussianBlur stdDeviation="5"/>
<feColorMatrix type="matrix" values="0 0 0 0 1 0 0 0 0 1 0 0 0 0 1 0 0 0 0.25 0"/>
<feBlend mode="normal" in2="BackgroundImageFix" result="effect1_dropShadow"/>
<feColorMatrix in="SourceAlpha" type="matrix" values="0 0 0 0 0 0 0 0 0 0 0 0 0 0 0 0 0 0 127 0"/>
<feOffset/>
<feGaussianBlur stdDeviation="1"/>
<feColorMatrix type="matrix" values="0 0 0 0 1 0 0 0 0 1 0 0 0 0 1 0 0 0 0.25 0"/>
<feBlend mode="normal" in2="effect1_dropShadow" result="effect2_dropShadow"/>
<feBlend mode="normal" in="SourceGraphic" in2="effect2_dropShadow" result="shape"/>
</filter>
</defs>
</svg>
